<svg width="16" height="16" viewBox="0 0 16 16" fill="none" xmlns="http://www.w3.org/2000/svg">
<path d="M8 15.5932C12.1936 15.5932 15.5933 12.1936 15.5933 7.99999C15.5933 3.80636 12.1936 0.406738 8 0.406738C3.80637 0.406738 0.40675 3.80636 0.40675 7.99999C0.40675 12.1936 3.80637 15.5932 8 15.5932Z" fill="white"/>
<path d="M8 0C3.58175 0 0 3.58175 0 8C0 12.4183 3.58175 16 8 16C12.4183 16 16 12.4183 16 8C16 3.58175 12.4183 0 8 0ZM8 0.813625C11.969 0.813625 15.1865 4.03113 15.1865 8C15.1865 11.9689 11.969 15.1865 8 15.1865C4.031 15.1865 0.8135 11.969 0.8135 8C0.8135 4.031 4.031 0.813625 8 0.813625Z" fill="#4000BF"/>
<path d="M8.09038 2.30499C11.2356 2.30499 13.7854 4.85474 13.7854 7.99999C13.7854 11.1452 11.2356 13.695 8.09038 13.695C4.94525 13.695 2.3955 11.1452 2.3955 7.99999C2.39449 7.25531 2.54004 6.51771 2.82388 5.82924C3.22688 6.37812 3.877 6.73449 4.61013 6.73449C5.83338 6.73449 6.82488 5.74299 6.82488 4.51974C6.82488 3.78649 6.46863 3.13649 5.91963 2.73349C6.6081 2.44966 7.3457 2.30398 8.09038 2.30499Z" fill="url(#paint0_linear_26_10)"/>
<defs>
<linearGradient id="paint0_linear_26_10" x1="8.0905" y1="13.695" x2="8.0905" y2="2.30499" gradientUnits="userSpaceOnUse">
<stop stop-color="#7400E1"/>
<stop offset="1" stop-color="#4000BF"/>
</linearGradient>
</defs>
</svg>
