<svg width="24" height="24" viewBox="0 0 24 24" fill="none" xmlns="http://www.w3.org/2000/svg">
<path d="M9.09597 21.25V18.104C9.096 17.3325 9.36393 16.5849 9.85397 15.989C6.84897 15.589 4.57397 14.13 4.57397 10.191C4.57397 8.525 6.00597 6.301 6.00597 6.301C5.49197 5.171 5.50597 3.217 6.06597 2.75C6.06597 2.75 8.01597 2.925 9.91297 4.5C11.751 4.005 13.677 3.946 15.574 4.5C17.471 2.925 19.422 2.75 19.422 2.75C19.98 3.217 19.995 5.172 19.482 6.301C19.482 6.301 20.914 8.525 20.914 10.191C20.914 14.131 18.638 15.589 15.634 15.989C16.1237 16.585 16.3912 17.3326 16.391 18.104V21.25" stroke="black" stroke-width="1.5" stroke-linecap="round" stroke-linejoin="round"/>
<path d="M3.08594 16.57C3.24894 17.124 3.54894 17.636 3.96394 18.066C4.37794 18.497 4.89594 18.836 5.47694 19.054C6.06181 19.2735 6.68628 19.3678 7.30988 19.3305C7.93349 19.2933 8.54232 19.1255 9.09694 18.838" stroke="black" stroke-width="1.5" stroke-linecap="round" stroke-linejoin="round"/>
</svg>
