<svg width="16" height="16" viewBox="0 0 16 16" fill="none" xmlns="http://www.w3.org/2000/svg">
<mask id="mask0_17_75" style="mask-type:luminance" maskUnits="userSpaceOnUse" x="0" y="0" width="16" height="16">
<path d="M0 0H16V16H0V0Z" fill="white"/>
</mask>
<g mask="url(#mask0_17_75)">
<path d="M12.25 0H3.75C1.67894 0 0 1.67894 0 3.75V12.25C0 14.3211 1.67894 16 3.75 16H12.25C14.3211 16 16 14.3211 16 12.25V3.75C16 1.67894 14.3211 0 12.25 0Z" fill="#242938"/>
<mask id="mask1_17_75" style="mask-type:luminance" maskUnits="userSpaceOnUse" x="1" y="5" width="14" height="6">
<path d="M1.4375 5.5H14.5625V10.5H1.4375V5.5Z" fill="white"/>
</mask>
<g mask="url(#mask1_17_75)">
<path d="M1.4375 5.5H14.5625V9.78569H8V10.5H5.08331V9.78569H1.4375V5.5ZM2.16669 9.07144H3.625V6.92856H4.35419V9.07144H5.08331V6.21431H2.16669V9.07144ZM5.8125 6.21431V9.78569H7.27081V9.07144H8.72919V6.21431H5.8125ZM7.27081 6.92856H8V8.35713H7.27081V6.92856ZM9.45831 6.21431V9.07144H10.9167V6.92856H11.6458V9.07144H12.375V6.92856H13.1042V9.07144H13.8333V6.21431H9.45831Z" fill="#CB3837"/>
<path d="M2.16669 9.07143H3.625V6.92856H4.35419V9.07143H5.08331V6.21431H2.16669V9.07143ZM5.8125 6.21431V9.78568H7.27081V9.07143H8.72919V6.21431H5.8125ZM8 8.35712H7.27081V6.92856H8V8.35712ZM9.45831 6.21431V9.07143H10.9167V6.92856H11.6458V9.07143H12.375V6.92856H13.1042V9.07143H13.8333V6.21431H9.45831Z" fill="white"/>
</g>
</g>
</svg>
