<svg width="16" height="16" viewBox="0 0 16 16" fill="none" xmlns="http://www.w3.org/2000/svg">
<path d="M12.25 0H3.75C1.67893 0 0 1.67893 0 3.75V12.25C0 14.3211 1.67893 16 3.75 16H12.25C14.3211 16 16 14.3211 16 12.25V3.75C16 1.67893 14.3211 0 12.25 0Z" fill="#242938"/>
<path d="M2.10725 6.263C2.10725 6.263 1.81132 6.04969 2.16644 5.76487L2.99369 5.02512C2.99369 5.02512 3.23044 4.77606 3.48069 4.99306L11.115 10.773V13.5446C11.115 13.5446 11.1113 13.9799 10.5528 13.9317L2.10725 6.263Z" fill="#2489CA"/>
<path d="M4.075 8.0495L2.10725 9.83844C2.10725 9.83844 1.905 9.98887 2.10725 10.2577L3.02082 11.0886C3.02082 11.0886 3.23782 11.3217 3.55838 11.0566L5.6445 9.47475L4.075 8.0495Z" fill="#1070B3"/>
<path d="M7.52963 8.06431L11.1384 5.30868L11.115 2.55187C11.115 2.55187 10.9609 1.95018 10.4468 2.26337L5.6445 6.63406L7.52963 8.06431Z" fill="#0877B9"/>
<path d="M10.5527 13.9355C10.7624 14.15 11.0164 14.0797 11.0164 14.0797L13.8287 12.6939C14.1887 12.4486 14.1381 12.1441 14.1381 12.1441V3.86862C14.1381 3.50487 13.7657 3.37919 13.7657 3.37919L11.3283 2.20419C10.7957 1.875 10.4467 2.26337 10.4467 2.26337C10.4467 2.26337 10.8955 1.94037 11.115 2.55187V13.4941C11.1153 13.5687 11.0989 13.6424 11.0669 13.7099C11.0028 13.8393 10.8635 13.9601 10.5294 13.9096L10.5527 13.9355Z" fill="#3C99D4"/>
</svg>
