<svg width="16" height="16" viewBox="0 0 16 16" fill="none" xmlns="http://www.w3.org/2000/svg">
<path d="M1.12287 9.76001C1.00575 9.79076 0.838375 9.88738 0.759374 9.97088L0.681625 10.0494L0.66 9.77288H0.373375L0.366875 10.775L0.362 11.7791H0.68825L0.6975 11.1261C0.70825 10.3893 0.72125 10.3193 0.860625 10.1769C0.961875 10.0738 1.12062 10.0164 1.25937 10.0321C1.37637 10.045 1.45787 10.0976 1.51962 10.2028C1.56112 10.2733 1.56337 10.3236 1.5705 11.0275L1.577 11.7791H1.90325L1.90962 11.0823C1.91612 10.4136 1.91837 10.3828 1.96487 10.2949C2.1345 9.98163 2.58225 9.93363 2.7295 10.2119C2.77387 10.2949 2.77612 10.341 2.78262 11.0383L2.79125 11.7791H3.098L3.091 10.9615L3.0845 10.1458L3.02262 10.0299C2.88612 9.77088 2.50887 9.67013 2.19637 9.80613C2.14537 9.82838 2.04837 9.9005 1.98012 9.96375C1.86587 10.0716 1.8545 10.0783 1.83062 10.0388C1.77312 9.94 1.67825 9.85225 1.58337 9.80625C1.47075 9.75563 1.23287 9.72976 1.12287 9.76001Z" fill="#850000"/>
<path d="M3.86913 9.76212C3.6025 9.819 3.34463 10.0096 3.24325 10.2291C3.08663 10.5604 3.09313 11.0361 3.2585 11.3579C3.42638 11.6869 3.8605 11.8754 4.25488 11.7941C4.79313 11.6804 5.044 11.3054 5.0065 10.672C5 10.5624 4.98 10.4244 4.9605 10.3609C4.88575 10.1219 4.66963 9.89812 4.42675 9.80812C4.28363 9.7535 4.01475 9.73187 3.86913 9.76212ZM4.32113 10.0781C4.55688 10.1875 4.67163 10.4135 4.66963 10.7706C4.66738 11.1326 4.56163 11.358 4.34113 11.4701C4.19325 11.5464 3.94663 11.5486 3.8095 11.4789C3.71513 11.4284 3.6025 11.3141 3.54938 11.2132C3.45013 11.0225 3.44588 10.5776 3.54075 10.374C3.6465 10.1437 3.821 10.0297 4.06525 10.0276C4.1715 10.0255 4.23763 10.0384 4.32113 10.0781ZM5.807 9.76862C5.65025 9.81462 5.5555 9.86725 5.465 9.95937C5.41675 10.0076 5.37013 10.0471 5.3615 10.0471C5.35275 10.0471 5.34413 9.98375 5.34413 9.90462V9.76L5.20713 9.76625L5.06838 9.77287L5.06188 10.7749L5.05738 11.779H5.388V11.1477C5.39025 10.4812 5.401 10.3717 5.48925 10.2401C5.55113 10.1435 5.71638 10.0514 5.86213 10.032C6.07138 10.0032 6.28538 10.1241 6.33375 10.2991C6.34938 10.3544 6.358 10.641 6.358 11.0821V11.779H6.69075L6.68425 10.9944L6.67775 10.2119L6.62025 10.0889C6.55413 9.95075 6.45513 9.86075 6.2985 9.7995C6.16188 9.74675 5.93475 9.73162 5.807 9.76862ZM7.41575 9.75987C7.08313 9.8325 6.84738 10.0846 6.75475 10.4639C6.713 10.6324 6.7195 10.9526 6.7655 11.1104C6.9005 11.5754 7.20013 11.8056 7.63425 11.7747C7.80175 11.7616 7.94738 11.7047 8.0595 11.606C8.1345 11.5401 8.14138 11.5379 8.1545 11.5796C8.17663 11.6517 8.14138 11.9345 8.09913 12.031C8.01575 12.2197 7.85038 12.3051 7.57238 12.3051C7.32363 12.3031 7.15563 12.2109 7.11613 12.051C7.10525 12.0094 7.08313 11.9985 7.00175 11.9872C6.95065 11.9817 6.89985 11.9737 6.8495 11.9632C6.80338 11.9545 6.7985 11.9611 6.7985 12.0467C6.80075 12.257 6.9595 12.4412 7.21525 12.529C7.32813 12.5686 7.40938 12.5794 7.58113 12.5794C7.97825 12.5794 8.25138 12.439 8.38363 12.1692C8.48275 11.9697 8.4985 11.7374 8.49138 10.672L8.48488 9.773H8.19825L8.19175 9.88737C8.1875 9.95075 8.17875 10.0032 8.17238 10.0032C8.16525 10.0032 8.12575 9.97275 8.08175 9.9355C7.91425 9.78875 7.62775 9.71387 7.41588 9.76L7.41575 9.75987ZM7.85038 10.0801C7.91225 10.1131 7.99125 10.1722 8.02438 10.2161C8.27138 10.5381 8.22475 11.2024 7.93838 11.4082C7.6585 11.6104 7.26838 11.5004 7.12963 11.1829C7.05875 11.0204 7.04138 10.6524 7.09663 10.453C7.13825 10.2925 7.257 10.1392 7.392 10.0692C7.51063 10.0055 7.709 10.0096 7.85038 10.0801ZM9.23438 9.77075C9.05175 9.82337 8.9965 9.84987 8.87513 9.942C8.63925 10.1176 8.52938 10.3869 8.5315 10.7812C8.5315 11.0686 8.5755 11.242 8.69463 11.4262C8.85338 11.6695 9.12438 11.8056 9.45488 11.8079C9.83638 11.8099 10.1383 11.6407 10.2905 11.3406L10.3675 11.1872L10.4358 11.3275C10.685 11.8516 11.4654 11.9785 11.9086 11.5709C11.979 11.5071 12.0561 11.4176 12.0783 11.3759C12.1026 11.332 12.1264 11.2967 12.1329 11.2967C12.14 11.2967 12.1639 11.3429 12.186 11.4019C12.2966 11.6652 12.5698 11.8099 12.9598 11.8076C13.1869 11.8076 13.3544 11.7661 13.5066 11.6695C13.5971 11.6126 13.7424 11.45 13.7424 11.404C13.7424 11.3954 13.7533 11.3602 13.7668 11.3277L13.7884 11.2659L13.8523 11.3759C14.1283 11.8581 14.8976 11.9654 15.316 11.5817C15.4243 11.481 15.5718 11.2204 15.5366 11.1872C15.5256 11.1765 15.4509 11.1585 15.3691 11.1497L15.224 11.1304L15.1881 11.2046C15.089 11.4105 14.9481 11.514 14.7345 11.5314C14.397 11.5622 14.1434 11.3536 14.0773 10.9966C14.0664 10.9331 14.062 10.8757 14.0685 10.8691C14.075 10.8627 14.417 10.8584 14.8266 10.8584H15.5716V10.7402C15.5716 10.5885 15.543 10.4395 15.4819 10.2774C15.4108 10.0887 15.1953 9.87862 14.9991 9.80612C14.7871 9.727 14.494 9.73187 14.2848 9.81687C13.9343 9.95937 13.7223 10.3149 13.7201 10.7554V10.9066L13.6324 10.8296C13.5374 10.751 13.348 10.6741 13.0483 10.5955C12.7128 10.5077 12.6005 10.4637 12.541 10.3955C12.4771 10.3192 12.4728 10.2689 12.5189 10.181C12.5698 10.0801 12.7105 10.0255 12.9203 10.0255C13.1603 10.0255 13.2683 10.0801 13.3458 10.238C13.3895 10.3277 13.4095 10.3495 13.4449 10.343C13.4945 10.3344 13.5443 10.3271 13.5944 10.3214C13.718 10.3061 13.7273 10.2731 13.6454 10.0997C13.5375 9.86937 13.2883 9.75125 12.916 9.7535C12.7415 9.7555 12.6689 9.76425 12.5655 9.806C12.3405 9.89162 12.2126 10.0429 12.1795 10.2644L12.1639 10.3652L12.0956 10.2335C11.7519 9.57562 10.7289 9.58925 10.4228 10.2552L10.3675 10.376L10.2905 10.2227C10.1933 10.0297 10.0413 9.89371 9.83425 9.81462C9.65113 9.74462 9.39538 9.72675 9.23438 9.77075ZM9.72588 10.0824C9.95288 10.194 10.0656 10.4222 10.0656 10.7705C10.0634 11.2527 9.84075 11.5379 9.46575 11.5379C9.2365 11.5379 9.04475 11.4105 8.94125 11.1939C8.8865 11.0756 8.88163 11.0469 8.88163 10.7706C8.88163 10.4481 8.906 10.3565 9.03388 10.2069C9.18613 10.0276 9.49888 9.97062 9.72588 10.0824ZM11.4805 10.058C11.5868 10.1017 11.7298 10.2336 11.7806 10.3322C11.8778 10.5207 11.8929 10.9152 11.8139 11.1455C11.7695 11.275 11.6485 11.4175 11.5314 11.4745C11.333 11.5754 11.0464 11.5421 10.8834 11.3995C10.6146 11.1651 10.5815 10.5077 10.8259 10.2249C10.9781 10.0449 11.2711 9.97287 11.4805 10.058ZM14.8928 10.0671C15.0674 10.1415 15.1973 10.3191 15.2039 10.4921L15.2081 10.5841H14.0844L14.0909 10.5185C14.1059 10.3342 14.2338 10.1615 14.4149 10.0715C14.5336 10.0119 14.7606 10.0095 14.8928 10.0671ZM12.3449 10.6871C12.4331 10.7684 12.5568 10.8166 12.949 10.9216C13.136 10.9721 13.3149 11.0317 13.3458 11.0535C13.5354 11.1894 13.4363 11.4522 13.169 11.5162C13.0103 11.553 12.7945 11.5336 12.6668 11.468C12.5784 11.4241 12.5518 11.3931 12.497 11.2772L12.431 11.1412L12.171 11.1672L12.1861 11.0642C12.1925 11.0074 12.1996 10.8561 12.1996 10.7289V10.4964L12.2413 10.5625C12.263 10.5977 12.3096 10.6546 12.3449 10.6871ZM8.72125 3.1555C8.52013 3.16362 8.1815 3.21737 8.1815 3.24012C8.1815 3.24975 8.4205 3.36912 8.43838 3.36912C8.45575 3.36912 8.73325 3.50787 8.79438 3.54625C8.87513 3.5975 8.9325 3.64437 8.91575 3.64437C8.905 3.64437 8.61988 3.53437 8.512 3.48762C8.42425 3.45025 8.059 3.34187 7.88075 3.29962C7.78488 3.27737 7.74425 3.26875 7.5805 3.239C7.33888 3.19462 7.0555 3.19237 6.93138 3.233C6.75475 3.2905 6.71513 3.36087 6.71513 3.6215C6.71513 3.76462 6.72213 3.82575 6.75363 3.95475C6.76663 4.011 6.80513 4.13412 6.82363 4.176C6.82838 4.18887 6.84513 4.2295 6.85938 4.26587C6.87388 4.30162 6.91725 4.39375 6.95563 4.469C7.17075 4.8955 7.49275 5.2515 7.94688 5.56462C8.08975 5.66275 8.47963 5.84925 8.63563 5.89375C8.67525 5.9045 8.68863 5.92725 8.65625 5.92725C8.61988 5.92725 8.291 5.83612 8.22325 5.8075C8.19757 5.79633 8.17151 5.78604 8.14513 5.77662C7.91113 5.68175 7.61188 5.48725 7.36425 5.26612C7.09298 5.02473 6.8761 4.72843 6.728 4.39687C6.63338 4.183 6.56888 3.93312 6.55313 3.71575C6.5435 3.59175 6.53375 3.56137 6.50113 3.563C6.49038 3.563 6.38838 3.55925 6.275 3.55337C5.969 3.54025 5.5495 3.57387 5.135 3.6455C4.34163 3.78025 3.486 4.09237 2.605 4.56825C2.45842 4.64732 2.31364 4.72968 2.17075 4.81525C2.15413 4.825 2.10138 4.85687 2.05325 4.88737C2.00513 4.91712 1.94863 4.95087 1.92813 4.96362C1.88263 4.98987 1.37913 5.33175 1.31913 5.37712C1.29625 5.394 1.23338 5.44062 1.18075 5.4785C0.941754 5.65587 0.421129 6.08 0.391379 6.12287C0.376629 6.1445 0.399379 6.15537 0.430879 6.1445C0.446504 6.13862 0.487129 6.1305 0.519629 6.1255C0.553379 6.12075 0.640004 6.098 0.712129 6.07425C0.770025 6.05578 0.828199 6.0382 0.886629 6.0215C1.06425 5.97987 1.13625 5.96525 1.241 5.95C1.28763 5.9435 1.3575 5.93325 1.39713 5.92725C1.88538 5.85512 2.11838 5.83725 2.3355 5.85412C2.80813 5.89262 3.26 5.97225 3.51863 6.06437C3.712 6.13375 4.10588 6.34662 4.27938 6.47462C4.37913 6.54987 4.701 6.87025 4.77188 6.96712C4.82725 7.04362 4.88838 7.11025 4.90313 7.11025C4.90738 7.11025 4.91388 6.86637 4.915 6.569L4.91825 6.02862L5.55063 6.02487C6.04813 6.02262 6.18625 6.0265 6.195 6.03737C6.20688 6.05262 6.23563 6.10387 6.33038 6.2795C6.421 6.44812 6.46538 6.52925 6.49288 6.57862C6.50713 6.60475 6.54063 6.667 6.56888 6.71562C6.59475 6.765 6.64413 6.85562 6.67763 6.91775C6.71138 6.98025 6.739 7.03275 6.739 7.03487C6.739 7.04575 6.78825 7.11025 6.797 7.11025C6.802 7.11025 6.81363 7.09225 6.822 7.07237C6.83175 7.0505 6.857 7.003 6.87725 6.96712C6.89888 6.93087 6.93725 6.86037 6.96388 6.81162C6.99038 6.76225 7.02675 6.69462 7.04575 6.66212C7.09875 6.56775 7.154 6.46487 7.1995 6.38137C7.22238 6.33812 7.25875 6.27137 7.27975 6.23175C7.30138 6.19225 7.33288 6.1365 7.34975 6.10612C7.36202 6.08235 7.3758 6.05938 7.391 6.03737C7.40013 6.0265 7.54213 6.02262 8.05413 6.02487L8.7045 6.02862L8.70763 7.08425C8.7105 7.916 8.71363 8.13812 8.72613 8.13812C8.733 8.137 8.78138 8.10937 8.83075 8.07475C8.90013 8.026 8.93038 7.99625 8.96238 7.941C9.03613 7.81575 9.24363 7.6185 9.38338 7.542C9.55278 7.44836 9.73496 7.37997 9.92413 7.339C10.1166 7.29837 10.1729 7.29237 10.6091 7.2765C11.4058 7.249 11.5239 7.244 11.5299 7.23812C11.533 7.23475 11.5223 7.20337 11.5071 7.16762C11.4904 7.133 11.4611 7.0685 11.4409 7.02575C11.3651 6.8615 11.3651 6.80687 11.4443 6.7265C11.4984 6.67075 11.6376 6.6215 11.8771 6.57375C11.9168 6.565 11.966 6.55475 11.9868 6.54712C12.0068 6.54125 12.0323 6.53687 12.043 6.53687C12.0729 6.53687 12.3123 6.47775 12.3628 6.45887C12.3975 6.44475 12.5849 6.40412 12.8086 6.36087C12.9058 6.34187 13.1583 6.2915 13.3674 6.24962C13.4996 6.22362 13.6378 6.196 13.6736 6.189C13.7099 6.1815 13.7614 6.17112 13.7879 6.16625C13.8144 6.16025 13.8491 6.15325 13.866 6.1505C13.8826 6.14675 13.9673 6.1305 14.0523 6.11262C14.1165 6.09863 14.181 6.08613 14.2458 6.07512C14.3059 6.06925 14.759 5.96037 14.8635 5.92725C15.0294 5.87325 15.0785 5.852 15.1833 5.7815C15.2965 5.7045 15.3274 5.66275 15.439 5.44062C15.5631 5.19312 15.581 5.15125 15.6158 5.04725C15.6698 4.8815 15.6666 4.81812 15.5976 4.74875C15.5501 4.701 15.4466 4.65162 15.3708 4.64075C15.3145 4.63387 15.3074 4.63587 15.2791 4.66625C15.2624 4.68425 15.2483 4.70525 15.2483 4.71287C15.2483 4.72312 15.2288 4.77637 15.1751 4.90537C15.1703 4.91825 15.1595 4.95087 15.1508 4.97675C15.1425 5.00515 15.1325 5.03303 15.1209 5.06025C15.1053 5.09387 15.1043 5.08787 15.11 4.99462C15.116 4.9025 15.1319 4.825 15.1665 4.70812C15.1725 4.68537 15.1811 4.64675 15.1843 4.62287L15.1903 4.58012L15.0656 4.52975C14.963 4.4878 14.8609 4.44479 14.7591 4.40075C14.7191 4.3849 14.6789 4.36936 14.6386 4.35412C14.597 4.33904 14.5558 4.32257 14.5153 4.30475C14.4735 4.28653 14.4314 4.26903 14.389 4.25225C14.3081 4.22137 14.0269 4.12612 13.7879 4.05062C13.7229 4.03012 13.3446 3.91687 13.3073 3.906C13.251 3.89148 13.195 3.87594 13.1394 3.85937C13.1198 3.8545 13.0731 3.84162 13.0369 3.83175C12.8256 3.77325 12.7703 3.75862 12.6944 3.73737C12.6526 3.72499 12.6105 3.71382 12.5681 3.70387C12.5454 3.69787 12.4831 3.68337 12.4299 3.67025C12.1999 3.61589 11.9696 3.56264 11.7391 3.5105C11.6889 3.49862 11.6387 3.48704 11.5884 3.47575C11.5526 3.46782 11.5166 3.46061 11.4805 3.45412C11.4304 3.44495 11.3804 3.43504 11.3305 3.42437C11.2524 3.40898 11.1742 3.39448 11.0958 3.38087C11.0257 3.36831 10.9556 3.35606 10.8855 3.34412C10.554 3.2845 10.531 3.28075 9.93613 3.21512C9.56925 3.1735 9.07663 3.13887 8.95638 3.14462C8.878 3.14727 8.79966 3.15089 8.72138 3.1555H8.72125ZM7.33188 3.7445C7.64875 3.84762 7.95775 3.98725 8.16963 4.12325C8.3375 4.23225 8.54675 4.40575 8.60313 4.48325L8.6275 4.51575L8.58138 4.49775C8.55638 4.487 8.50338 4.46425 8.46388 4.44525C8.25263 4.34712 8.22975 4.33837 8.22975 4.36025C8.22975 4.36612 8.279 4.44525 8.3375 4.5335C8.39775 4.62287 8.44588 4.70212 8.44588 4.709C8.44588 4.715 8.42313 4.70525 8.3955 4.68625C8.28725 4.61212 8.0335 4.506 8.01888 4.5275C8.01575 4.5335 8.09388 4.63275 8.19338 4.74875C8.29188 4.86462 8.37375 4.96375 8.37375 4.97075C8.37375 4.98887 8.35438 4.9865 8.26338 4.95287C8.16963 4.91937 8.14513 4.91612 8.14513 4.93837C8.14513 4.954 8.34838 5.22775 8.42913 5.32262C8.45188 5.3485 8.46975 5.3735 8.46975 5.3795C8.46975 5.40825 8.1885 5.2255 7.98913 5.06775C7.70413 4.84087 7.42875 4.53562 7.2835 4.28375C7.16488 4.07787 7.12375 3.96675 7.12375 3.84475C7.12375 3.77325 7.1275 3.75862 7.15413 3.73375C7.16938 3.71687 7.18875 3.70375 7.19575 3.70375C7.20325 3.70375 7.263 3.72187 7.33188 3.7445ZM11.1261 4.17012C11.2416 4.19062 11.3986 4.21762 11.4745 4.23137C11.5504 4.24437 11.6425 4.26 11.6789 4.266C11.7146 4.27287 11.7666 4.28275 11.7931 4.28875C11.8193 4.29462 11.8713 4.305 11.9069 4.31375C12.0263 4.33962 12.055 4.34562 12.2496 4.39125C12.4586 4.4405 12.5041 4.44962 12.5681 4.46325C12.6221 4.4735 12.6764 4.49412 12.6764 4.50387C12.6764 4.507 12.6364 4.53 12.5888 4.55475C12.49 4.60412 12.4695 4.6075 12.0635 4.623C11.7866 4.635 11.6394 4.63175 11.5045 4.61012C11.2329 4.56837 11.0925 4.49187 10.983 4.32675C10.9446 4.27025 10.9193 4.254 10.8314 4.23125C10.7989 4.2215 10.7495 4.2085 10.7235 4.2C10.697 4.19175 10.6514 4.17875 10.6223 4.17C10.536 4.14737 10.5853 4.13425 10.7593 4.13425C10.8795 4.13425 10.9636 4.1425 11.1261 4.17012ZM12.5716 5.84012C12.5617 5.84216 12.5514 5.84216 12.5415 5.84012C12.5333 5.83612 12.5393 5.83412 12.556 5.83412C12.5728 5.83412 12.5788 5.83625 12.5716 5.84012ZM12.5196 5.85412C12.5196 5.86 12.5056 5.86875 12.4871 5.87212C12.4095 5.89321 12.3322 5.91559 12.2553 5.93925C12.2386 5.94525 12.1848 5.962 12.1355 5.976C12.0114 6.01175 11.7111 6.10987 11.6305 6.14075C11.4794 6.19825 11.1233 6.38737 11.073 6.43712C10.9988 6.51037 10.9755 6.5895 10.9863 6.74012C10.99 6.80287 10.9988 6.88312 11.0056 6.91775C11.0198 6.99312 11.0116 7.01375 10.9829 6.97637C10.9538 6.93962 10.8924 6.80575 10.8745 6.74012C10.8649 6.70975 10.854 6.67075 10.848 6.65137C10.8263 6.5835 10.835 6.50325 10.8686 6.454C10.9141 6.38462 11.0778 6.27362 11.2701 6.1815C11.3611 6.1375 11.6268 6.0465 11.8711 5.97487C11.9204 5.96037 11.9741 5.94362 11.9909 5.93925C12.1643 5.88075 12.5196 5.82437 12.5196 5.85412ZM8.71838 5.93437C8.71513 5.93762 8.70425 5.93925 8.69563 5.93537C8.68588 5.93162 8.68963 5.92837 8.7025 5.92837C8.71625 5.92725 8.72338 5.93062 8.71838 5.93437Z" fill="#850000"/>
<path d="M6.19812 8.24599V9.08249H6.79687C7.24625 9.08249 7.399 9.07874 7.40975 9.06787C7.42775 9.04999 7.43149 7.40912 7.41362 7.40912C7.40774 7.40912 7.399 7.41849 7.39525 7.42924C7.39087 7.44012 7.25962 7.64424 7.10325 7.88337C6.856 8.26112 6.78712 8.35312 6.78712 8.30662C6.78712 8.29837 6.3775 7.65912 6.27287 7.50462C6.25861 7.48459 6.24607 7.46338 6.23537 7.44124C6.22575 7.42312 6.21387 7.40924 6.20787 7.40924C6.203 7.40924 6.19812 7.78587 6.19812 8.24599Z" fill="#850000"/>
</svg>
