<svg width="16" height="16" viewBox="0 0 16 16" fill="none" xmlns="http://www.w3.org/2000/svg">
<path d="M12.25 0H3.75C1.67893 0 0 1.67893 0 3.75V12.25C0 14.3211 1.67893 16 3.75 16H12.25C14.3211 16 16 14.3211 16 12.25V3.75C16 1.67893 14.3211 0 12.25 0Z" fill="#330000"/>
<path d="M7.73331 9.52082H5.25331L4.74662 11.0875C4.73331 11.1475 4.68 11.1875 4.62 11.1808H3.36662C3.29331 11.1808 3.27331 11.1408 3.29331 11.0608L5.44 4.88082C5.46 4.81419 5.48 4.74082 5.50662 4.66082C5.53331 4.52082 5.54662 4.37419 5.54662 4.22751C5.54 4.19419 5.56662 4.16082 5.6 4.15419H7.32662C7.38 4.15419 7.40662 4.17419 7.41331 4.20751L9.84662 11.0742C9.86662 11.1475 9.84662 11.1808 9.78 11.1808H8.38662C8.34 11.1875 8.29331 11.1542 8.28 11.1075L7.73331 9.52082ZM5.64 8.16751H7.33331C7.29331 8.02751 7.24 7.86082 7.18 7.68751C7.12 7.50751 7.06 7.31419 7 7.11419C6.93331 6.90751 6.87331 6.70751 6.80662 6.50082C6.74 6.29419 6.68 6.10082 6.62662 5.90751C6.57331 5.72088 6.52662 5.54751 6.48 5.38751H6.46662C6.40662 5.67419 6.33331 5.96088 6.24 6.24751C6.14 6.56751 6.04 6.90082 5.93331 7.23419C5.84723 7.54885 5.74939 7.86017 5.64 8.16751ZM11.3333 5.32082C11.1133 5.32751 10.9 5.24082 10.74 5.08751C10.5867 4.92082 10.5067 4.70082 10.5133 4.47419C10.5067 4.24751 10.5933 4.03419 10.7533 3.88082C10.9133 3.72744 11.1267 3.64751 11.3467 3.64751C11.6067 3.64751 11.8067 3.72751 11.9533 3.88082C12.1011 4.04244 12.18 4.25531 12.1733 4.47419C12.18 4.70082 12.1 4.92082 11.94 5.08751C11.7867 5.24751 11.56 5.33419 11.3333 5.32082ZM10.5867 11.1075V5.97419C10.5867 5.90751 10.6133 5.88082 10.6733 5.88082H11.9933C12.0533 5.88082 12.08 5.91419 12.08 5.97419V11.1075C12.08 11.1808 12.0533 11.2142 11.9933 11.2142H10.6867C10.62 11.2142 10.5867 11.1742 10.5867 11.1075Z" fill="#FF9A00"/>
</svg>
