<svg width="16" height="16" viewBox="0 0 16 16" fill="none" xmlns="http://www.w3.org/2000/svg">
<path d="M12.25 0H3.75C1.67893 0 0 1.67893 0 3.75V12.25C0 14.3211 1.67893 16 3.75 16H12.25C14.3211 16 16 14.3211 16 12.25V3.75C16 1.67893 14.3211 0 12.25 0Z" fill="#242938"/>
<path d="M8.00006 9.18443C8.64406 9.18443 9.16606 8.66237 9.16606 8.01843C9.16606 7.37449 8.64406 6.85243 8.00006 6.85243C7.35606 6.85243 6.83406 7.37449 6.83406 8.01843C6.83406 8.66237 7.35612 9.18443 8.00006 9.18443Z" fill="#00D8FF"/>
<path d="M8.00012 5.64769C9.56562 5.64769 11.0199 5.87231 12.1165 6.24988C13.4377 6.70469 14.25 7.39413 14.25 8.01844C14.25 8.669 13.3891 9.40144 11.9703 9.8715C10.8977 10.2269 9.48619 10.4124 8.00012 10.4124C6.4765 10.4124 5.03369 10.2383 3.94894 9.86756C2.57656 9.3985 1.75 8.65663 1.75 8.01844C1.75 7.39919 2.52562 6.71507 3.82825 6.26094C4.92887 5.87719 6.41906 5.64769 7.99988 5.64769H8.00012Z" stroke="#00D8FF" stroke-width="0.556938"/>
<path d="M5.93631 6.83987C6.71844 5.48375 7.6395 4.33612 8.51437 3.57487C9.56837 2.65756 10.5715 2.29831 11.1122 2.61012C11.6758 2.93512 11.8802 4.04687 11.5787 5.51075C11.3509 6.61744 10.8062 7.93281 10.0638 9.22019C9.30262 10.5401 8.43106 11.7029 7.56812 12.4572C6.47619 13.4117 5.4205 13.7571 4.86769 13.4383C4.33125 13.1292 4.12612 12.1154 4.3835 10.7601C4.60094 9.61487 5.14662 8.20931 5.93606 6.83987H5.93631Z" stroke="#00D8FF" stroke-width="0.556938"/>
<path d="M5.93825 9.22363C5.15393 7.86901 4.61993 6.49763 4.39706 5.35951C4.12875 3.98819 4.31843 2.93976 4.85875 2.62701C5.42181 2.30101 6.487 2.67913 7.60462 3.67151C8.44962 4.42176 9.31731 5.55032 10.0619 6.83644C10.8252 8.15507 11.3974 9.491 11.6199 10.6153C11.9016 12.038 11.6736 13.1251 11.1213 13.4448C10.5854 13.755 9.60475 13.4266 8.55906 12.5267C7.67556 11.7664 6.73031 10.5918 5.93825 9.22363Z" stroke="#00D8FF" stroke-width="0.556938"/>
</svg>
