<svg width="16" height="16" viewBox="0 0 16 16" fill="none" xmlns="http://www.w3.org/2000/svg">
<path d="M12.25 0H3.75C1.67893 0 0 1.67893 0 3.75V12.25C0 14.3211 1.67893 16 3.75 16H12.25C14.3211 16 16 14.3211 16 12.25V3.75C16 1.67893 14.3211 0 12.25 0Z" fill="#023430"/>
<path d="M10.6983 6.72444C10.0397 3.81938 8.66725 3.046 8.31712 2.49931C8.17266 2.25852 8.04476 2.00817 7.93431 1.75C7.91581 2.00813 7.88181 2.17062 7.66244 2.36637C7.222 2.75906 5.35137 4.28344 5.19394 7.58425C5.04725 10.6619 7.45644 12.5596 7.77469 12.7557C8.01944 12.8762 8.3175 12.7583 8.46294 12.6477C9.62425 11.8507 11.211 9.72588 10.6996 6.72444" fill="#10AA50"/>
<path d="M8.03406 11.1169C7.97344 11.8787 7.93 12.3213 7.776 12.7566C7.776 12.7566 7.87706 13.4818 7.94806 14.25H8.19925C8.25925 13.7091 8.35073 13.1721 8.47325 12.6418C8.14806 12.4818 8.04656 11.7854 8.03406 11.1169Z" fill="#B8C4C2"/>
<path d="M8.47281 12.6422C8.14419 12.4904 8.04912 11.7793 8.0345 11.1169C8.11572 10.0242 8.13942 8.92804 8.1055 7.83287C8.08825 7.25824 8.11362 2.51049 7.96394 1.81537C8.06627 2.05083 8.18427 2.27918 8.31712 2.49887C8.66725 3.04599 10.0402 3.81937 10.6983 6.72443C11.211 9.72074 9.63287 11.84 8.47281 12.6422Z" fill="#12924F"/>
</svg>
