<svg width="24" height="24" viewBox="0 0 24 24" fill="none" xmlns="http://www.w3.org/2000/svg">
<path fill-rule="evenodd" clip-rule="evenodd" d="M22.471 11.0987C22.231 10.7187 21.751 10.7087 21.301 10.7687C19.439 11.0672 17.7019 11.8939 16.296 13.1507C15.3549 13.7982 14.5938 14.6744 14.0843 15.6968C13.5747 16.7192 13.3334 17.8544 13.383 18.9957C13.3676 19.7449 13.5002 20.4897 13.773 21.1877C13.1221 21.9806 12.5302 22.8202 12.002 23.6997C12.002 23.9297 12.292 24.1197 12.622 23.9097C13.7943 22.6917 14.897 21.4087 15.925 20.0667C16.8104 18.7545 17.6226 17.3944 18.358 15.9927C18.3876 15.927 18.3926 15.8529 18.372 15.7839C18.3515 15.7149 18.3069 15.6555 18.2462 15.6167C18.1855 15.5779 18.113 15.5622 18.0417 15.5724C17.9704 15.5827 17.9052 15.6183 17.858 15.6727C13.984 20.7867 14.534 20.0767 14.104 20.6767C14.0936 20.5102 14.0936 20.3432 14.104 20.1767C13.9277 19.2296 13.9821 18.254 14.2625 17.3323C14.5429 16.4107 15.0411 15.5701 15.715 14.8817C17.717 12.8797 20.63 11.7887 21.45 11.8787C21.45 15.0317 21.45 14.7317 21.38 15.2317L19.839 16.2327C19.659 16.3327 19.209 16.4527 19.079 16.8327C18.858 17.4937 19.669 17.5547 20.199 18.0847C18.929 18.8247 18.768 18.5847 18.378 18.8647C18.3107 18.9013 18.2513 18.9508 18.2033 19.0105C18.1553 19.0701 18.1195 19.1387 18.0982 19.2122C18.0768 19.2858 18.0702 19.3628 18.0787 19.4389C18.0873 19.515 18.1108 19.5887 18.148 19.6557C18.464 19.9617 18.7973 20.2487 19.148 20.5167C16.466 22.7687 15.715 21.9887 15.265 22.2887C15.2044 22.3292 15.1579 22.3877 15.1322 22.456C15.1064 22.5243 15.1026 22.5989 15.1214 22.6694C15.1401 22.7399 15.1804 22.8028 15.2366 22.8493C15.2929 22.8958 15.3622 22.9235 15.435 22.9287C17.437 23.2487 20.039 20.9277 20.129 20.6967C20.289 20.2767 19.799 19.9467 19.339 19.5267C20.0031 19.268 20.6512 18.9702 21.28 18.6347C21.3618 18.5949 21.4324 18.5355 21.4856 18.4617C21.5388 18.3879 21.5729 18.3021 21.5848 18.2119C21.5966 18.1218 21.586 18.0301 21.5537 17.945C21.5215 17.86 21.4687 17.7843 21.4 17.7247L20.58 16.9937C21.71 16.3737 22.281 16.0737 22.481 15.5227C22.601 15.2227 22.791 11.5887 22.471 11.0987Z" fill="#E28D8D"/>
<path fill-rule="evenodd" clip-rule="evenodd" d="M11.061 18.9957C3.594 19.1057 6.767 19.1157 3.504 18.7257C3.014 18.6757 2.794 18.3057 2.654 17.8747C2.394 17.0237 2.464 16.8737 2.584 8.53566C2.44082 6.86552 2.51139 5.18394 2.794 3.53166C3.044 2.53066 2.794 2.15066 4.214 2.17066C4.214 2.51066 4.084 3.80166 4.114 4.02166C4.204 4.78266 4.955 4.67166 5.246 4.75166C6.767 5.11266 7.338 3.97166 7.248 2.38066C7.724 2.52366 8.232 2.52366 8.708 2.38066C8.708 2.49066 8.608 3.76166 8.638 3.94166C8.728 4.70166 9.47 4.58166 9.77 4.66166C11.271 5.02266 11.842 3.92166 11.772 2.36066C12.452 2.56066 12.502 2.53066 13.503 2.30066C13.503 2.40066 13.423 3.68166 13.443 3.80166C13.4513 3.94836 13.5062 4.08857 13.5997 4.20188C13.6933 4.3152 13.8205 4.3957 13.963 4.43166C15.565 4.86266 16.506 4.43166 16.556 2.70166C16.892 2.70966 17.2253 2.73966 17.556 2.79166C17.797 2.79166 17.997 2.87166 18.017 3.07166L18.387 10.0077C18.3754 10.0729 18.3857 10.1402 18.4163 10.199C18.4468 10.2579 18.496 10.3049 18.5561 10.333C18.6161 10.361 18.6838 10.3685 18.7485 10.3541C18.8132 10.3398 18.8714 10.3045 18.914 10.2537C18.942 10.2198 18.9623 10.1803 18.9733 10.1378C18.9844 10.0953 18.986 10.0509 18.978 10.0077C19.418 7.65566 19.418 5.24266 18.978 2.89066C18.738 1.89066 17.657 1.89066 16.596 1.98066C16.5006 1.41859 16.3185 0.874762 16.056 0.368663C15.9136 0.240037 15.7467 0.141402 15.5653 0.0786348C15.3839 0.0158675 15.1918 -0.00974726 15.0003 0.00331671C14.8088 0.0163807 14.6219 0.0678561 14.4508 0.154676C14.2796 0.241495 14.1277 0.361882 14.004 0.508663C13.8093 0.814399 13.6736 1.15393 13.604 1.50966C12.9373 1.35053 12.2376 1.40296 11.602 1.65966C11.5696 1.25624 11.4611 0.862615 11.282 0.499663C11.1373 0.364802 10.9663 0.261205 10.7798 0.195335C10.5933 0.129464 10.3952 0.102733 10.1978 0.116807C10.0005 0.130881 9.80822 0.185459 9.63293 0.277137C9.45764 0.368815 9.30311 0.495626 9.179 0.649663C9.0163 0.91178 8.89804 1.19898 8.829 1.49966C8.25452 1.38617 7.66018 1.42759 7.107 1.61966C7.06388 1.247 6.95556 0.884814 6.787 0.549663C6.64529 0.379985 6.45767 0.254749 6.24662 0.188951C6.03557 0.123152 5.81003 0.11958 5.597 0.178663C4.795 0.298663 4.495 0.848663 4.315 1.62966C3.78111 1.52829 3.22858 1.61673 2.753 1.87966C2.243 2.21966 2.213 2.94066 2.073 3.40166C1.68387 5.09427 1.51248 6.82964 1.563 8.56566C1.373 13.2607 1.423 11.7587 1.353 15.2617C1.353 17.1637 1.353 19.5957 3.414 19.7457C6.757 19.9957 3.534 20.1157 11.071 19.6957C11.117 19.695 11.1623 19.6853 11.2046 19.6671C11.2468 19.6489 11.285 19.6226 11.317 19.5896C11.3491 19.5567 11.3743 19.5177 11.3913 19.475C11.4083 19.4323 11.4167 19.3866 11.416 19.3407C11.4153 19.2947 11.4056 19.2493 11.3874 19.2071C11.3692 19.1649 11.3429 19.1267 11.3099 19.0946C11.277 19.0626 11.238 19.0374 11.1953 19.0204C11.1526 19.0034 11.107 18.995 11.061 18.9957ZM14.444 1.73966C14.524 0.248663 15.444 0.619663 15.505 0.909663C15.622 1.64666 15.605 2.39966 15.455 3.13066C15.295 3.68166 15.015 3.55066 14.454 3.54066C14.4807 2.94066 14.4773 2.34066 14.444 1.74066M9.84 1.03066C10.04 0.630663 10.62 0.900663 10.7 0.870663C10.8566 1.66367 10.8566 2.47965 10.7 3.27266C10.61 3.57266 10.43 3.78266 10.05 3.67266H9.69C9.69 3.55266 9.75 3.42266 9.75 3.37266C9.61447 2.59439 9.64514 1.79624 9.84 1.03066ZM5.346 1.08066C5.546 0.680663 6.126 0.950663 6.206 0.920663C6.357 1.71066 6.357 2.52166 6.206 3.31266C6.116 3.61266 5.936 3.83266 5.556 3.71266H5.196C5.196 3.59266 5.256 3.46266 5.256 3.41266C5.12189 2.63763 5.15256 1.84305 5.346 1.08066Z" fill="#E28D8D"/>
<path fill-rule="evenodd" clip-rule="evenodd" d="M15.135 8.24568C15.1749 8.2145 15.2081 8.17567 15.2328 8.13148C15.2574 8.08728 15.273 8.0386 15.2786 7.9883C15.2842 7.938 15.2797 7.88709 15.2653 7.83855C15.251 7.79002 15.227 7.74484 15.195 7.70568C15.005 7.39568 9.51999 6.98468 6.85699 7.09468C3.85399 7.29468 4.28499 7.79468 4.76499 7.90468C5.80599 8.22568 15.115 8.26568 15.135 8.24568ZM12.002 11.3487C11.692 11.2687 9.25899 11.1387 8.79899 11.1387C8.33899 11.1387 4.95599 11.2387 4.79499 11.6187C4.78594 11.6606 4.78665 11.704 4.79705 11.7457C4.80745 11.7873 4.82728 11.8259 4.85499 11.8587C5.46199 12.0787 6.10199 12.1937 6.74699 12.1987C8.49899 12.3217 10.258 12.2787 12.002 12.0687C12.412 12.0687 12.542 11.4787 12.002 11.3487ZM5.07599 15.9927C6.58314 16.3267 8.14211 16.354 9.65999 16.0727C9.7235 16.0089 9.75916 15.9226 9.75916 15.8327C9.75916 15.7427 9.7235 15.6564 9.65999 15.5927C8.72352 15.2875 7.74157 15.1454 6.75699 15.1727C4.46499 15.3127 3.99499 15.8127 5.07599 15.9927Z" fill="#E28D8D"/>
</svg>
